<?xml version="1.0" standalone="no"?>
<!DOCTYPE svg PUBLIC "-//W3C//DTD SVG 20010904//EN"
 "http://www.w3.org/TR/2001/REC-SVG-20010904/DTD/svg10.dtd">
<svg version="1.0" xmlns="http://www.w3.org/2000/svg"
 width="417.000000pt" height="152.000000pt" viewBox="0 0 417.000000 152.000000"
 preserveAspectRatio="xMidYMid meet">

<g transform="translate(0.000000,152.000000) scale(0.100000,-0.100000)"
fill="#000000" stroke="none">
<path d="M1340 1344 c-105 -28 -176 -87 -240 -199 -93 -162 -161 -552 -121
-692 23 -84 83 -126 197 -139 50 -6 55 -9 50 -28 -19 -79 -18 -102 7 -132 23
-27 31 -29 94 -29 53 0 77 5 106 23 47 27 51 27 37 3 -16 -30 -14 -31 48 -31
51 0 60 3 69 23 6 12 27 57 47 100 l35 77 -59 0 -60 0 -25 -50 c-32 -63 -73
-90 -137 -90 -61 0 -70 15 -55 92 11 52 16 60 58 86 98 62 155 147 208 308 75
231 99 485 54 571 -30 56 -84 97 -144 111 -64 15 -101 14 -169 -4z m147 -104
c44 -26 60 -55 71 -124 23 -149 -64 -516 -148 -621 -23 -29 -30 -33 -30 -19 0
19 15 91 26 127 5 16 0 18 -52 15 l-58 -3 -21 -100 -21 -100 -53 0 c-48 1 -57
5 -86 36 -40 45 -50 105 -35 226 48 385 160 582 330 583 27 0 58 -8 77 -20z"/>
<path d="M3468 1349 c-157 -24 -278 -171 -278 -337 0 -114 20 -134 228 -222
143 -61 158 -77 155 -157 -2 -65 -30 -128 -74 -169 -44 -40 -86 -54 -168 -54
-76 0 -125 23 -142 68 -11 26 -6 121 7 155 5 15 -2 17 -49 17 l-55 0 -11 -50
c-20 -93 -7 -175 36 -222 42 -46 92 -62 198 -63 89 0 107 3 162 29 78 35 134
95 176 184 27 58 31 78 32 151 l0 83 -46 42 c-33 30 -84 58 -173 95 -153 64
-170 81 -164 163 8 112 82 187 193 196 99 8 164 -50 152 -137 l-5 -41 53 0
c60 0 65 7 65 93 0 128 -122 202 -292 176z"/>
<path d="M3865 1340 c3 -5 13 -10 21 -10 10 0 14 -13 14 -50 0 -27 5 -50 10
-50 6 0 10 23 10 50 0 38 4 50 15 50 8 0 15 5 15 10 0 6 -21 10 -46 10 -27 0
-43 -4 -39 -10z"/>
<path d="M3972 1288 c1 -61 1 -62 8 -18 l6 45 12 -30 c7 -16 15 -36 17 -43 5
-14 25 -7 25 8 0 5 5 21 12 37 l12 28 6 -45 c7 -44 7 -44 8 18 1 34 -2 62 -6
62 -5 0 -17 -21 -28 -47 l-20 -48 -15 44 c-23 69 -39 64 -37 -11z"/>
<path d="M416 1153 c-21 -98 -68 -321 -105 -495 l-68 -318 247 0 247 0 10 45
10 45 -193 0 c-107 0 -194 2 -194 4 0 8 30 151 36 169 5 15 22 17 174 17 186
0 170 -6 185 68 l7 32 -172 0 c-158 0 -171 1 -166 18 3 9 26 118 51 242 25
124 48 233 51 243 5 15 23 17 200 17 158 0 194 3 194 14 0 7 3 28 6 45 l7 31
-245 0 -245 0 -37 -177z"/>
<path d="M2041 1308 c-5 -13 -108 -223 -230 -467 -122 -245 -221 -449 -221
-453 0 -5 25 -8 56 -6 l56 3 53 115 52 115 160 3 160 2 6 -67 c4 -38 7 -101 7
-140 l0 -73 60 0 c56 0 60 2 60 23 0 12 -9 146 -19 297 -11 151 -25 354 -31
450 -15 241 -7 220 -90 220 -64 0 -71 -2 -79 -22z m77 -584 c-3 -2 -62 -3
-131 -2 l-126 3 99 217 c54 120 109 239 121 265 l23 48 9 -263 c5 -145 7 -265
5 -268z"/>
<path d="M2606 1313 c-5 -17 -206 -961 -206 -969 0 -2 114 -4 254 -4 l255 0 8
43 9 42 -198 3 c-185 2 -198 4 -198 21 0 10 41 209 90 441 50 232 90 427 90
431 0 5 -22 9 -49 9 -39 0 -51 -4 -55 -17z"/>
<path d="M1440 325 c0 -20 -5 -25 -25 -25 -14 0 -25 -4 -25 -10 0 -5 11 -10
25 -10 20 0 25 -5 25 -25 0 -14 5 -25 10 -25 6 0 10 11 10 25 0 20 5 25 25 25
14 0 25 5 25 10 0 6 -11 10 -25 10 -20 0 -25 5 -25 25 0 14 -4 25 -10 25 -5 0
-10 -11 -10 -25z"/>
</g>
</svg>
